<svg width="20" height="20" viewBox="0 0 20 20" fill="none" xmlns="http://www.w3.org/2000/svg">
  <path
    d="M10 1.5C14.6944 1.5 18.5 5.30558 18.5 10C18.5 14.6944 14.6944 18.5 10 18.5C5.30558 18.5 1.5 14.6944 1.5 10C1.5 5.30558 5.30558 1.5 10 1.5ZM13.3252 7.6123C12.9347 7.22195 12.3016 7.22184 11.9111 7.6123L9.0625 10.4609L8.55762 9.95605C8.16709 9.56553 7.53408 9.56553 7.14355 9.95605C6.75305 10.3466 6.75304 10.9796 7.14355 11.3701L8.35547 12.582C8.746 12.9724 9.37906 12.9725 9.76953 12.582L13.3252 9.02637C13.7157 8.6359 13.7156 8.00284 13.3252 7.6123Z"
    fill="#107C10" />
</svg>