<svg width="32" height="32" viewBox="0 0 32 32" fill="none" xmlns="http://www.w3.org/2000/svg">
<rect width="32" height="32" rx="6" fill="#DFF6E5"/>
<path d="M9.66667 10.1665H21.3333C22.2538 10.1665 23 10.9127 23 11.8332V14.3332C22.0795 14.3332 21.3333 15.0794 21.3333 15.9998C21.3333 16.9203 22.0795 17.6665 23 17.6665V20.1665C23 21.087 22.2538 21.8332 21.3333 21.8332H9.66667C8.74619 21.8332 8 21.087 8 20.1665V17.6665C8.92047 17.6665 9.66667 16.9203 9.66667 15.9998C9.66667 15.0794 8.92047 14.3332 8 14.3332V11.8332C8 10.9127 8.74619 10.1665 9.66667 10.1665" stroke="#165B35" stroke-width="1.5" stroke-linecap="round" stroke-linejoin="round"/>
<path d="M12.5 16L14.5 18L18.5 14" stroke="#165B35" stroke-width="1.5" stroke-linecap="round" stroke-linejoin="round"/>
</svg>
