<svg width="48" height="48" viewBox="0 0 48 48" fill="none" xmlns="http://www.w3.org/2000/svg">
<rect x="0.5" y="0.5" width="47" height="47" rx="7.5" stroke="#8DE971"/>
<path d="M20.5 24.0002L22.1667 25.6668L25.5 22.3335" stroke="#8DE971" stroke-width="1.5" stroke-linecap="round" stroke-linejoin="round"/>
<path fill-rule="evenodd" clip-rule="evenodd" d="M21.4993 18.1665H19.8327C18.9122 18.1665 18.166 18.9127 18.166 19.8332V29.8332C18.166 30.7536 18.9122 31.4998 19.8327 31.4998H28.166C29.0865 31.4998 29.8327 30.7536 29.8327 29.8332V19.8332C29.8327 18.9127 29.0865 18.1665 28.166 18.1665H26.4993" fill="#8DE971"/>
<path d="M21.4993 18.1665H19.8327C18.9122 18.1665 18.166 18.9127 18.166 19.8332V29.8332C18.166 30.7536 18.9122 31.4998 19.8327 31.4998H28.166C29.0865 31.4998 29.8327 30.7536 29.8327 29.8332V19.8332C29.8327 18.9127 29.0865 18.1665 28.166 18.1665H26.4993" stroke="#212322" stroke-linecap="round" stroke-linejoin="round"/>
<rect x="21.5" y="16.5" width="5" height="3.33333" rx="1.66667" fill="#8DE971" stroke="#212322" stroke-linecap="round" stroke-linejoin="round"/>
<path d="M25.6673 23.1665H23.584C22.8936 23.1665 22.334 23.7261 22.334 24.4165C22.334 25.1069 22.8936 25.6665 23.584 25.6665H24.4173C25.1077 25.6665 25.6673 26.2261 25.6673 26.9165C25.6673 27.6069 25.1077 28.1665 24.4173 28.1665H22.334" stroke="#212322" stroke-linecap="round" stroke-linejoin="round"/>
<path d="M24.5 28.1668C24.5 27.8907 24.2761 27.6668 24 27.6668C23.7239 27.6668 23.5 27.8907 23.5 28.1668H24H24.5ZM23.5 29.0002C23.5 29.2763 23.7239 29.5002 24 29.5002C24.2761 29.5002 24.5 29.2763 24.5 29.0002H24H23.5ZM24.5 22.3335C24.5 22.0574 24.2761 21.8335 24 21.8335C23.7239 21.8335 23.5 22.0574 23.5 22.3335H24H24.5ZM23.5 23.1668C23.5 23.443 23.7239 23.6668 24 23.6668C24.2761 23.6668 24.5 23.443 24.5 23.1668H24H23.5ZM24 28.1668H23.5V29.0002H24H24.5V28.1668H24ZM24 22.3335H23.5V23.1668H24H24.5V22.3335H24Z" fill="#212322"/>
</svg>
