<svg width="32" height="32" viewBox="0 0 32 32" fill="none" xmlns="http://www.w3.org/2000/svg">
<rect width="32" height="32" rx="6" fill="#FFF7D6"/>
<path d="M16.9997 10.1665V11.8332" stroke="#5C4B00" stroke-width="1.5" stroke-linecap="round" stroke-linejoin="round"/>
<path d="M16.9997 15.1665V16.8332" stroke="#5C4B00" stroke-width="1.5" stroke-linecap="round" stroke-linejoin="round"/>
<path d="M16.9997 20.1665V21.8332" stroke="#5C4B00" stroke-width="1.5" stroke-linecap="round" stroke-linejoin="round"/>
<path d="M8.66667 10.1665H20.3333C21.2538 10.1665 22 10.9127 22 11.8332V14.3332C21.0795 14.3332 20.3333 15.0794 20.3333 15.9998C20.3333 16.9203 21.0795 17.6665 22 17.6665V20.1665C22 21.087 21.2538 21.8332 20.3333 21.8332H8.66667C7.74619 21.8332 7 21.087 7 20.1665V17.6665C7.92047 17.6665 8.66667 16.9203 8.66667 15.9998C8.66667 15.0794 7.92047 14.3332 7 14.3332V11.8332C7 10.9127 7.74619 10.1665 8.66667 10.1665" stroke="#5C4B00" stroke-width="1.5" stroke-linecap="round" stroke-linejoin="round"/>
</svg>
