<svg width="71" height="71" viewBox="0 0 71 71" fill="none" xmlns="http://www.w3.org/2000/svg">
<rect x="0.5" y="0.5" width="70" height="70" rx="7.5" stroke="#212322"/>
<circle cx="36" cy="25" r="15" fill="#8DE971" stroke="#212322" stroke-width="1.5" stroke-linecap="round" stroke-linejoin="round"/>
<circle cx="36" cy="21.6666" r="5" stroke="#212322" stroke-width="1.5" stroke-linecap="round" stroke-linejoin="round"/>
<path d="M26 36.415C26.8471 33.5957 29.4429 31.6658 32.3867 31.6666H39.0533C42.0011 31.6656 44.5995 33.6006 45.4433 36.425" stroke="#212322" stroke-width="1.5" stroke-linecap="round" stroke-linejoin="round"/>
<rect x="4" y="49" width="63" height="17" rx="4" fill="#8DE971"/>
<path d="M27.1788 53.2727L29.4501 60.142H29.5396L31.8066 53.2727H33.5453L30.4686 62H28.5169L25.4444 53.2727H27.1788ZM36.2757 53.2727V62H34.6948V53.2727H36.2757ZM37.9877 62V53.2727H41.2605C41.9309 53.2727 42.4934 53.3977 42.948 53.6477C43.4054 53.8977 43.7505 54.2415 43.9835 54.679C44.2193 55.1136 44.3372 55.608 44.3372 56.1619C44.3372 56.7216 44.2193 57.2187 43.9835 57.6534C43.7477 58.0881 43.3997 58.4304 42.9395 58.6804C42.4792 58.9276 41.9125 59.0511 41.2392 59.0511H39.0701V57.7514H41.0261C41.4181 57.7514 41.7392 57.6832 41.9892 57.5469C42.2392 57.4105 42.4238 57.223 42.5431 56.9844C42.6653 56.7457 42.7264 56.4716 42.7264 56.1619C42.7264 55.8523 42.6653 55.5795 42.5431 55.3438C42.4238 55.108 42.2377 54.9247 41.9849 54.794C41.7349 54.6605 41.4125 54.5938 41.0176 54.5938H39.5687V62H37.9877Z" fill="#212322"/>
</svg>
