<svg width="48" height="48" viewBox="0 0 48 48" fill="none" xmlns="http://www.w3.org/2000/svg">
<rect x="0.5" y="0.5" width="47" height="47" rx="7.5" stroke="#8DE971"/>
<path d="M20.5 24.0002L22.1667 25.6668L25.5 22.3335" stroke="#8DE971" stroke-width="1.5" stroke-linecap="round" stroke-linejoin="round"/>
<path fill-rule="evenodd" clip-rule="evenodd" d="M17.1667 18.1665H28.8333C29.7538 18.1665 30.5 18.9127 30.5 19.8332V22.3332C29.5795 22.3332 28.8333 23.0794 28.8333 23.9998C28.8333 24.9203 29.5795 25.6665 30.5 25.6665V28.1665C30.5 29.087 29.7538 29.8332 28.8333 29.8332H17.1667C16.2462 29.8332 15.5 29.087 15.5 28.1665V25.6665C16.4205 25.6665 17.1667 24.9203 17.1667 23.9998C17.1667 23.0794 16.4205 22.3332 15.5 22.3332V19.8332C15.5 18.9127 16.2462 18.1665 17.1667 18.1665Z" fill="#8DE971"/>
<path d="M17.1667 18.1665H28.8333C29.7538 18.1665 30.5 18.9127 30.5 19.8332V22.3332C29.5795 22.3332 28.8333 23.0794 28.8333 23.9998C28.8333 24.9203 29.5795 25.6665 30.5 25.6665V28.1665C30.5 29.087 29.7538 29.8332 28.8333 29.8332H17.1667C16.2462 29.8332 15.5 29.087 15.5 28.1665V25.6665C16.4205 25.6665 17.1667 24.9203 17.1667 23.9998C17.1667 23.0794 16.4205 22.3332 15.5 22.3332V19.8332C15.5 18.9127 16.2462 18.1665 17.1667 18.1665" stroke="#212322" stroke-linecap="round" stroke-linejoin="round"/>
<path fill-rule="evenodd" clip-rule="evenodd" d="M20 24L22 26L26 22" fill="#8DE971"/>
<path d="M20 24L22 26L26 22" stroke="#212322" stroke-linecap="round" stroke-linejoin="round"/>
</svg>
