<svg width="48" height="48" viewBox="0 0 48 48" fill="none" xmlns="http://www.w3.org/2000/svg">
<rect x="0.5" y="0.5" width="47" height="47" rx="7.5" stroke="#8DE971"/>
<path d="M20.5 24.0002L22.1667 25.6668L25.5 22.3335" stroke="#8DE971" stroke-width="1.5" stroke-linecap="round" stroke-linejoin="round"/>
<path fill-rule="evenodd" clip-rule="evenodd" d="M23 16.5C24.9466 18.2221 27.4871 19.1188 30.0834 19C30.8471 21.5979 30.5246 24.3945 29.1896 26.7504C27.8545 29.1063 25.6212 30.8201 23 31.5C20.3789 30.8201 18.1456 29.1063 16.8105 26.7504C15.4755 24.3945 15.153 21.5979 15.9167 19C18.513 19.1188 21.0535 18.2221 23 16.5Z" fill="#8DE971"/>
<path d="M23 16.5C24.9466 18.2221 27.4871 19.1188 30.0834 19C30.8471 21.5979 30.5246 24.3945 29.1896 26.7504C27.8545 29.1063 25.6212 30.8201 23 31.5C20.3789 30.8201 18.1456 29.1063 16.8105 26.7504C15.4755 24.3945 15.153 21.5979 15.9167 19C18.513 19.1188 21.0535 18.2221 23 16.5" stroke="#212322" stroke-linecap="round" stroke-linejoin="round"/>
<path d="M21.5 24.0002L23.1667 25.6668L26.5 22.3335" stroke="#212322" stroke-linecap="round" stroke-linejoin="round"/>
</svg>
